<svg xmlns="http://www.w3.org/2000/svg" aria-hidden="true" style="position:absolute;width:0;height:0;overflow:hidden">
  <defs>
    <symbol id="icon-logo_google_g_icon" viewBox="0 0 32 32">
      <path fill="#4280ef" d="M25.6 16.235c0-.661-.064-1.344-.171-1.984h-9.237v3.776h5.291a4.446 4.446 0 0 1-1.963 2.965l3.157 2.453c1.856-1.728 2.923-4.245 2.923-7.211z" style="fill:var(--color1, #4280ef)"/>
      <path fill="#34a353" d="M16.192 25.792c2.645 0 4.864-.875 6.485-2.368l-3.157-2.432c-.875.597-2.005.939-3.328.939-2.56 0-4.715-1.728-5.504-4.032l-3.243 2.496a9.782 9.782 0 0 0 8.747 5.397z" style="fill:var(--color2, #34a353)"/>
      <path fill="#f6b704" d="M10.688 17.877a5.954 5.954 0 0 1 0-3.755l-3.243-2.517a9.802 9.802 0 0 0 0 8.789l3.243-2.517z" style="fill:var(--color3, #f6b704)"/>
      <path fill="#e54335" d="M16.192 10.091a5.345 5.345 0 0 1 3.755 1.472l2.795-2.816a9.425 9.425 0 0 0-6.549-2.539 9.784 9.784 0 0 0-8.747 5.397l3.243 2.517c.789-2.325 2.944-4.032 5.504-4.032z" style="fill:var(--color4, #e54335)"/>
    </symbol>
    <symbol id="icon-star_xmas_icon" viewBox="0 0 32 32">
      <path fill="#f6ab27" d="m16.969.631 4.107 8.719c.151.329.456.562.814.62l9.183 1.398a1.145 1.145 0 0 1 .599 1.932l-6.645 6.787a1.166 1.166 0 0 0-.311 1.003l1.569 9.583a1.09 1.09 0 0 1-1.569 1.194l-8.214-4.525a1.04 1.04 0 0 0-1.006 0l-8.214 4.525a1.093 1.093 0 0 1-1.569-1.194l1.569-9.583a1.167 1.167 0 0 0-.311-1.003L.326 13.3a1.147 1.147 0 0 1 .599-1.932l9.183-1.398c.358-.058.663-.29.814-.62L15.029.631a1.06 1.06 0 0 1 1.938 0z" style="fill:var(--color5, #f6ab27)"/>
      <path fill="#f4cd1e" d="M20.077 7.233a33.44 33.44 0 0 0-7.272 5.252 31.612 31.612 0 0 0-5.837 7.597L.325 13.301a1.149 1.149 0 0 1 .601-1.931l9.181-1.401c.357-.059.662-.29.817-.618L15.029.628a1.063 1.063 0 0 1 1.942 0l3.106 6.604z" style="fill:var(--color6, #f4cd1e)"/>
    </symbol>
  </defs>
</svg>
